HIERARCHY
ROOT SpineBase
{
  OFFSET 0.000000 0.000000 0.000000
  CHANNELS 6 Xposition Yposition Zposition Zrotation Xrotation Yrotation
  JOINT SpineMid
  {
    OFFSET 0.000000 26.420088 0.000000
    CHANNELS 3 Zrotation Xrotation Yrotation
    JOINT SpineShoulder
    {
      OFFSET 0.054854 19.724629 -0.630541
      CHANNELS 3 Zrotation Xrotation Yrotation
      JOINT Neck
      {
        OFFSET -0.004323 6.554602 -0.477700
        CHANNELS 3 Zrotation Xrotation Yrotation
        JOINT Head
        {
          OFFSET -3.423511 11.433237 1.138697
          CHANNELS 3 Zrotation Xrotation Yrotation
          End Site
          {
            OFFSET 0 0 0
          }
        }
      }
      JOINT ShoulderLeft
      {
        OFFSET -12.703592 -3.227397 4.380772
        CHANNELS 3 Zrotation Xrotation Yrotation
        JOINT ElbowLeft
        {
          OFFSET -2.357252 -18.425720 8.838622
          CHANNELS 3 Zrotation Xrotation Yrotation
          JOINT WristLeft
          {
            OFFSET 1.172851 1.542058 -24.182307
            CHANNELS 3 Zrotation Xrotation Yrotation
            JOINT HandLeft
            {
              OFFSET 1.124509 -1.424632 -8.453060
              CHANNELS 3 Zrotation Xrotation Yrotation
              JOINT HandTipLeft
              {
                OFFSET -3.005926 -0.798125 -3.687090
                CHANNELS 3 Zrotation Xrotation Yrotation
                End Site
                {
                  OFFSET 0 0 0
                }
              }
              JOINT ThumbLeft
              {
                OFFSET -0.323774 3.884067 -2.795052
                CHANNELS 3 Zrotation Xrotation Yrotation
                End Site
                {
                  OFFSET 0 0 0
                }
              }
            }
          }
        }
      }
      JOINT ShoulderRight
      {
        OFFSET 10.923038 -1.328868 -6.455451
        CHANNELS 3 Zrotation Xrotation Yrotation
        JOINT ElbowRight
        {
          OFFSET 7.365773 -19.225673 -2.773856
          CHANNELS 3 Zrotation Xrotation Yrotation
          JOINT WristRight
          {
            OFFSET -22.176128 -0.413816 -8.430549
            CHANNELS 3 Zrotation Xrotation Yrotation
            JOINT HandRight
            {
              OFFSET -6.569999 -0.975820 -0.915659
              CHANNELS 3 Zrotation Xrotation Yrotation
              JOINT HandTipRight
              {
                OFFSET -5.364996 -2.314546 -4.106358
                CHANNELS 3 Zrotation Xrotation Yrotation
                End Site
                {
                  OFFSET 0 0 0
                }
              }
              JOINT ThumbRight
              {
                OFFSET 0.390942 -2.616307 0.559706
                CHANNELS 3 Zrotation Xrotation Yrotation
                End Site
                {
                  OFFSET 0 0 0
                }
              }
            }
          }
        }
      }
    }
  }
  JOINT HipLeft
  {
    OFFSET -5.526057 0.358056 -1.078796
    CHANNELS 3 Zrotation Xrotation Yrotation
    JOINT KneeLeft
    {
      OFFSET 3.860131 -32.738180 2.799908
      CHANNELS 3 Zrotation Xrotation Yrotation
      JOINT AnkleLeft
      {
        OFFSET 5.641883 -33.017056 5.581908
        CHANNELS 3 Zrotation Xrotation Yrotation
        JOINT FootLeft
        {
          OFFSET -1.201722 -3.424605 -7.982495
          CHANNELS 3 Zrotation Xrotation Yrotation
          End Site
          {
            OFFSET 0 0 0
          }
        }
      }
    }
  }
  JOINT HipRight
  {
    OFFSET 5.189152 1.329978 -4.932580
    CHANNELS 3 Zrotation Xrotation Yrotation
    JOINT KneeRight
    {
      OFFSET 5.191059 -31.604390 -0.582708
      CHANNELS 3 Zrotation Xrotation Yrotation
      JOINT AnkleRight
      {
        OFFSET 3.386872 -32.938292 3.507752
        CHANNELS 3 Zrotation Xrotation Yrotation
        JOINT FootRight
        {
          OFFSET -4.360913 -5.891000 0.546786
          CHANNELS 3 Zrotation Xrotation Yrotation
          End Site
          {
            OFFSET 0 0 0
          }
        }
      }
    }
  }
}
MOTION
Frames: 7
Frame Time: 0.033333
22.031343 73.051917 369.309000 -0.405136 2.189584 20.624359 0.351333 0.029890 -20.619373 -0.033357 -0.156841 0.001128 0.713456 -9.386701 -2.158733 0.000000 0.000000 0.000000 -2.024292 53.208010 -10.215989 8.896713 -20.195299 8.741398 4.969347 0.105063 -0.844224 -5.969007 -1.980293 -47.573500 0.000000 0.000000 0.000000 0.000000 0.000000 0.000000 -5.876409 0.049735 1.648330 -15.124416 5.740861 1.211242 -1.846707 -6.901395 4.267498 -16.847368 30.474848 2.362604 0.000000 0.000000 0.000000 0.000000 0.000000 0.000000 0.646335 -0.462013 -20.334706 -0.871185 -0.614522 -0.134744 6.602177 -15.884264 -12.118916 0.000000 0.000000 0.000000 0.478036 0.029999 -20.216503 -1.218945 -3.114805 -0.648245 7.921632 -4.000118 4.718719 0.000000 0.000000 0.000000
22.063247 73.087967 369.402692 -0.406157 2.207933 20.579136 0.326908 0.046823 -20.575606 -0.054037 -0.159779 -0.002023 0.437697 -9.810908 -2.277613 0.000000 0.000000 0.000000 -4.755037 64.053223 -12.863675 19.808832 -29.807291 4.421626 10.886645 -19.172193 -3.243351 -2.624188 6.659935 -42.155144 0.000000 0.000000 0.000000 0.000000 0.000000 0.000000 -5.834165 -0.056186 1.615005 -15.375312 6.005817 0.875835 -0.772424 -7.519638 5.648276 -17.817004 32.940625 0.780951 0.000000 0.000000 0.000000 0.000000 0.000000 0.000000 0.776800 -0.653151 -20.281882 -1.326226 -0.286634 -0.152333 8.535315 -24.839494 -16.238411 0.000000 0.000000 0.000000 0.724729 0.275292 -20.116683 -1.579778 -3.536702 -0.755144 5.606039 1.551712 0.002373 0.000000 0.000000 0.000000
22.103760 73.134565 369.504490 -0.439729 2.198014 20.589492 0.282628 0.053452 -20.588628 -0.089052 -0.163347 -0.008695 0.552098 -10.010784 -2.334543 0.000000 0.000000 0.000000 -8.067208 73.021256 -14.398469 33.487838 -38.381312 1.518029 19.312857 -30.048177 3.721335 6.984916 6.143410 -46.739245 0.000000 0.000000 0.000000 0.000000 0.000000 0.000000 -5.705931 -0.111956 1.591390 -15.541020 6.143035 0.876953 0.253787 -8.053993 6.867787 -19.838239 34.029114 1.426478 0.000000 0.000000 0.000000 0.000000 0.000000 0.000000 0.816544 -0.463615 -20.276642 -1.401519 -0.425190 -0.189361 8.411388 -26.760330 -14.594920 0.000000 0.000000 0.000000 0.989795 0.490041 -20.080362 -1.743441 -3.776935 -0.808694 5.482008 1.515753 -0.011633 0.000000 0.000000 0.000000
22.142864 73.186711 369.602963 -0.486315 2.161914 20.571664 0.232111 0.054851 -20.573897 -0.121582 -0.168931 -0.015934 0.745315 -9.964628 -2.326030 0.000000 0.000000 0.000000 -12.390057 79.390553 -13.818411 47.378458 -45.277516 1.093870 26.790435 -30.991728 12.433171 17.258116 -1.367615 -50.683812 0.000000 0.000000 0.000000 0.000000 0.000000 0.000000 -5.672525 -0.105470 1.599138 -15.564141 6.240518 0.867257 0.814707 -8.416470 7.739135 -20.099609 35.444898 0.347263 0.000000 0.000000 0.000000 0.000000 0.000000 0.000000 0.907934 -0.299984 -20.241998 -1.663329 -0.493048 -0.247854 8.224567 -27.836039 -11.918353 0.000000 0.000000 0.000000 1.162766 0.633311 -20.036192 -1.802832 -3.922361 -0.836771 5.507268 1.918290 -0.340999 0.000000 0.000000 0.000000
22.175708 73.234395 369.684532 -0.520581 2.157202 20.604326 0.232784 0.063290 -20.607111 -0.120039 -0.164968 -0.017319 0.544599 -10.173153 -2.386752 0.000000 0.000000 0.000000 -16.955117 82.944679 -11.449054 58.313955 -50.590424 3.138549 30.874196 -29.779211 17.469273 24.680854 -6.608892 -49.922019 0.000000 0.000000 0.000000 0.000000 0.000000 0.000000 -5.778003 -0.138380 1.609099 -15.503773 6.291183 0.884409 0.859248 -8.483357 7.844816 -20.180439 36.111616 -0.041489 0.000000 0.000000 0.000000 0.000000 0.000000 0.000000 0.988145 -0.149199 -20.255457 -1.780761 -0.757856 -0.313796 6.973122 -24.783600 -7.108083 0.000000 0.000000 0.000000 1.208749 0.663535 -20.061086 -1.574343 -3.757079 -0.782955 5.612978 1.245520 0.026860 0.000000 0.000000 0.000000
22.205289 73.279169 369.754365 -0.543542 2.196734 20.549947 0.259886 0.050996 -20.551326 -0.090336 -0.159421 -0.014097 0.075866 -10.540310 -2.496483 0.000000 0.000000 0.000000 -15.508354 81.721507 -12.359341 60.162068 -54.572781 3.179296 22.887100 -18.146328 25.497148 25.892635 -19.127470 -53.765851 0.000000 0.000000 0.000000 0.000000 0.000000 0.000000 -6.034570 -0.153801 1.642288 -15.321994 6.274709 0.888832 0.304590 -8.375385 7.555145 -19.620289 34.826848 0.823613 0.000000 0.000000 0.000000 0.000000 0.000000 0.000000 1.002550 -0.003876 -20.185240 -1.736175 -1.132357 -0.371845 6.126009 -21.361816 -5.367301 0.000000 0.000000 0.000000 1.192700 0.622276 -20.005738 -1.484066 -3.663920 -0.760567 6.170699 1.166505 0.061468 0.000000 0.000000 0.000000
22.235756 73.312833 369.807049 -0.549984 2.231056 20.352591 0.298269 0.034135 -20.351708 -0.057148 -0.164608 -0.009357 -0.529888 -10.866398 -2.607349 0.000000 0.000000 0.000000 -18.646549 85.553417 -10.495267 74.289495 -60.183149 11.021050 23.703115 -14.455841 33.881898 30.741398 -35.511118 -60.358713 0.000000 0.000000 0.000000 0.000000 0.000000 0.000000 -6.383710 -0.125248 1.694189 -15.148585 6.266572 0.856568 0.273744 -8.390494 7.481900 -19.736500 34.294961 1.468701 0.000000 0.000000 0.000000 0.000000 0.000000 0.000000 1.002476 0.052858 -19.980071 -1.735961 -1.270402 -0.396123 5.410000 -19.202248 -3.774115 0.000000 0.000000 0.000000 1.042487 0.524833 -19.825117 -1.403233 -3.335264 -0.719622 6.175535 1.080780 -0.046118 0.000000 0.000000 0.000000
